<svg version="1.1" id="Layer_1" xmlns="http://www.w3.org/2000/svg" xmlns:xlink="http://www.w3.org/1999/xlink" x="0px" y="0px"
	 width="100%" viewBox="0 0 500 500" enable-background="new 0 0 500 500" xml:space="preserve">
<path fill="#00032E" opacity="1.000000" stroke="none" 
	d="
M220.000000,501.000000 
	C146.666687,501.000000 73.833366,501.000000 1.000039,501.000000 
	C1.000026,334.333405 1.000026,167.666779 1.000013,1.000129 
	C167.666565,1.000086 334.333130,1.000086 500.999756,1.000043 
	C500.999847,167.666534 500.999847,334.333069 500.999939,500.999817 
	C407.500000,501.000000 314.000000,501.000000 220.000000,501.000000 
M273.501801,253.592361 
	C273.501801,253.592361 273.688812,253.623276 274.073975,254.067444 
	C275.395721,255.036453 276.717468,256.005463 278.551697,257.360870 
	C279.395020,258.017487 280.238312,258.674133 281.454559,259.840546 
	C286.626648,262.194580 291.798737,264.548584 297.573303,267.390167 
	C302.701263,267.903656 307.829193,268.417145 313.806488,268.951324 
	C319.609589,267.590698 325.788879,267.084961 331.152130,264.724823 
	C357.489136,253.134964 368.967041,219.615555 355.267853,194.184143 
	C347.533783,179.826508 335.556122,171.071518 318.046661,169.709061 
	C311.311523,170.550949 304.576416,171.392838 297.185059,172.393738 
	C293.118958,174.599579 289.052826,176.805405 284.344971,179.249191 
	C279.293304,183.863083 274.241669,188.476990 268.699677,193.548233 
	C265.407898,197.327011 262.116089,201.105804 258.191803,205.244949 
	C256.050354,208.862885 254.027191,206.588898 252.171539,205.009476 
	C250.089798,203.237625 248.188400,201.253891 245.896286,198.822739 
	C241.868958,195.583572 237.841614,192.344406 233.765213,188.426926 
	C228.854874,184.737289 223.944519,181.047653 218.588791,176.925690 
	C214.402328,175.130753 210.215851,173.335815 205.425735,171.153168 
	C199.313171,170.766235 193.200623,170.379303 186.224533,169.985046 
	C157.911438,172.780609 139.734299,198.028656 141.486496,224.818176 
	C143.118286,249.767120 166.426529,270.876373 190.881393,268.937653 
	C195.934799,267.797363 200.988205,266.657043 206.775009,265.239624 
	C211.869354,262.253082 216.963699,259.266541 222.643784,255.934525 
	C224.829239,253.863419 227.014679,251.792328 229.759003,249.277374 
	C234.233307,244.217316 238.707611,239.157272 243.772293,233.761230 
	C244.478180,232.296677 245.184067,230.832123 245.889938,229.367569 
	C246.391861,229.903656 246.893784,230.439758 247.395691,230.975861 
	C249.524185,232.692215 251.652695,234.408585 254.054367,236.688171 
	C255.003952,237.497040 255.953522,238.305908 257.238617,239.690857 
	C262.106720,243.380005 266.974854,247.069138 271.473602,251.278854 
	C272.134460,251.988693 272.795319,252.698532 273.501801,253.592361 
M333.338989,289.186554 
	C326.232880,292.457703 319.126770,295.728851 311.493866,298.558624 
	C305.116333,291.242981 296.763489,294.930481 288.658844,293.878387 
	C288.658844,297.337982 288.658844,300.136719 287.806519,302.932068 
	C285.509186,302.968842 283.211853,303.005615 280.449188,302.549713 
	C276.215485,293.526215 268.546722,292.816071 259.850861,293.438171 
	C259.511505,293.081146 259.237640,292.592804 258.823273,292.386200 
	C247.397324,286.689667 236.007080,280.917938 224.503281,275.382324 
	C215.516373,271.057831 206.572372,272.975616 196.613556,275.880005 
	C202.752090,281.656158 208.078995,286.810394 213.588257,291.761658 
	C215.132980,293.149902 217.214386,293.940979 219.608154,295.371643 
	C222.182236,298.955078 224.756317,302.538483 226.555588,306.126007 
	C222.177231,303.383606 217.798859,300.641205 213.244217,297.068268 
	C213.719788,292.454895 210.013718,294.517944 207.662415,293.278442 
	C201.704422,288.513306 196.071503,283.251556 189.717041,279.092102 
	C178.401169,271.685059 167.493515,272.774384 159.794540,281.626770 
	C160.913239,281.508240 161.652512,281.472595 162.376129,281.346924 
	C176.000565,278.981171 182.737778,282.254639 189.313126,294.376190 
	C190.015533,295.671082 190.979599,296.824066 191.965332,298.965149 
	C191.965332,306.558563 191.965332,314.151978 191.965332,322.351868 
	C199.514328,322.351868 206.381897,322.351868 213.644531,322.351868 
	C213.737106,321.518982 213.877487,320.255951 214.615570,319.235474 
	C215.949921,319.848785 217.284271,320.462097 218.847229,321.647583 
	C219.202805,321.845428 219.558365,322.043243 220.092072,322.879791 
	C224.213470,325.829498 228.005432,329.495148 232.526810,331.575562 
	C241.166870,335.551178 250.222260,338.624115 259.204895,342.766083 
	C260.834930,346.036682 262.464966,349.307251 264.055511,352.498657 
	C265.500214,349.169983 266.999664,345.715118 268.685730,341.830322 
	C267.515686,342.013977 266.749573,342.134247 265.886200,341.554230 
	C261.923157,338.697998 257.960114,335.841736 253.997055,332.985504 
	C254.155045,332.577606 254.313034,332.169708 254.471024,331.761810 
	C273.250671,336.053589 290.473419,332.609192 307.033661,321.941162 
	C308.982849,321.941162 310.932037,321.941162 313.217590,321.941162 
	C312.546814,320.546600 312.210480,319.847351 312.036682,318.454315 
	C315.622711,315.312683 319.208710,312.171051 322.548706,309.763885 
	C320.828186,313.680420 319.107635,317.596985 317.366028,321.561462 
	C321.412720,322.652008 324.430176,322.413177 325.664764,317.857910 
	C325.886353,317.040314 327.535675,316.191071 328.590607,316.098999 
	C331.390442,315.854553 334.242493,315.840363 337.038239,316.107178 
	C338.082214,316.206818 339.692169,317.171448 339.907928,318.027863 
	C341.120239,322.839722 344.353973,322.399597 348.355255,321.592896 
	C344.482880,312.903534 340.810242,304.418457 336.848907,296.070404 
	C336.331390,294.979736 334.330658,294.592926 333.085693,293.166046 
	C333.381256,291.770813 333.676819,290.375580 334.114105,288.940277 
	C334.114105,288.940277 334.150146,288.791046 334.150146,288.791046 
	C334.150146,288.791046 334.015594,289.024109 333.338989,289.186554 
M167.031387,309.113098 
	C169.674667,312.326202 172.523987,315.395355 174.899506,318.795532 
	C177.001755,321.804565 179.406372,322.738770 182.710968,321.638245 
	C182.710968,312.310333 182.710968,303.222473 182.710968,294.185608 
	C180.611038,294.185608 178.812485,294.185608 176.181671,294.185608 
	C176.181671,299.295746 176.181671,304.226562 176.181671,310.376099 
	C171.933426,305.214050 168.487000,301.360626 165.441788,297.212646 
	C163.286377,294.276703 160.927612,293.159058 157.537140,294.456665 
	C157.537140,303.670654 157.537140,312.727570 157.537140,321.633881 
	C159.796295,321.633881 161.691116,321.633881 164.174225,321.633881 
	C164.174225,316.412354 164.174225,311.561127 164.174225,305.943542 
	C165.420761,307.277283 165.983582,307.879486 167.031387,309.113098 
M230.842239,341.815582 
	C229.069687,341.815582 227.297134,341.815582 225.388687,341.815582 
	C225.388687,345.757050 225.388687,349.254120 225.388687,354.172272 
	C229.006638,352.857513 231.844345,351.826294 234.682037,350.795074 
	C233.202209,348.001617 236.067917,343.719177 230.842239,341.815582 
M299.251617,343.498291 
	C298.542664,342.955627 297.833710,342.412994 296.818970,341.636292 
	C296.818970,345.715485 296.818970,349.216888 296.818970,352.718262 
	C297.121674,352.720612 297.424377,352.722961 297.727081,352.725311 
	C297.950531,350.705048 298.173981,348.684753 298.474182,345.970825 
	C300.973053,348.671387 303.001068,350.863068 305.591278,353.662323 
	C305.591278,349.117737 305.591278,345.636353 305.591278,342.154968 
	C305.290894,342.139221 304.990479,342.123505 304.690094,342.107758 
	C304.391785,343.930847 304.093445,345.753937 303.650055,348.463562 
	C302.003632,346.604370 300.852264,345.304260 299.251617,343.498291 
M247.322464,341.697357 
	C242.697189,342.217224 241.920837,344.735565 243.891495,352.521027 
	C246.305893,352.521027 248.665573,352.521027 252.018082,352.521027 
	C249.008743,351.410431 247.129639,350.716949 245.250534,350.023468 
	C246.837921,349.027557 248.425308,348.031616 250.003952,347.041168 
	C248.373993,346.483124 246.722290,345.917603 245.070572,345.352112 
	C245.107361,344.900330 245.144135,344.448547 245.180908,343.996765 
	C247.087967,343.585266 248.995041,343.173767 250.902100,342.762268 
	C250.895386,342.556732 250.888672,342.351227 250.881958,342.145721 
	C249.953659,341.997589 249.025375,341.849487 247.322464,341.697357 
M280.794983,353.049561 
	C283.013763,351.971008 285.818604,351.372223 287.237549,349.638885 
	C288.127930,348.551178 287.635895,345.079193 286.497559,343.908936 
	C285.155487,342.529205 282.290924,341.706787 280.375458,342.089417 
	C278.726318,342.418854 276.162781,344.973358 276.342590,346.201752 
	C276.688324,348.563904 278.689453,350.683716 280.794983,353.049561 
M198.795029,353.049530 
	C201.013794,351.970978 203.818619,351.372162 205.237579,349.638855 
	C206.127975,348.551208 205.635925,345.079163 204.497574,343.908936 
	C203.155487,342.529236 200.290939,341.706787 198.375458,342.089417 
	C196.726318,342.418854 194.162811,344.973358 194.342606,346.201721 
	C194.688354,348.563873 196.689453,350.683716 198.795029,353.049530 
M178.046921,342.591736 
	C175.095840,344.911469 174.196121,348.164856 176.769180,350.672974 
	C178.369049,352.232452 181.669540,352.345856 184.224335,352.410126 
	C184.837097,352.425568 185.519760,349.662872 186.362106,347.739929 
	C183.704391,349.289520 182.133286,350.766479 180.409729,350.973389 
	C179.550461,351.076538 177.347702,348.133209 177.572403,347.801819 
	C179.058487,345.610138 181.038803,343.753571 182.914337,341.727112 
	C181.761597,341.857666 180.203796,342.034088 178.046921,342.591736 
z"/>
<path fill="#010001" opacity="1.000000" stroke="none" 
	d="
M318.760590,169.989044 
	C335.556122,171.071518 347.533783,179.826508 355.267853,194.184143 
	C368.967041,219.615555 357.489136,253.134964 331.152130,264.724823 
	C325.788879,267.084961 319.609589,267.590698 313.420532,268.585327 
	C314.201996,266.064148 315.448151,263.947296 316.520447,261.745789 
	C318.739899,257.189148 320.866852,252.587479 323.343201,247.846558 
	C324.559387,247.268051 325.455048,246.826096 326.370453,246.429733 
	C341.550415,239.856781 350.188110,223.583466 347.141724,207.348068 
	C344.276642,192.078842 335.263458,182.139038 320.807495,176.512787 
	C320.111420,174.100189 319.436005,172.044617 318.760590,169.989044 
z"/>
<path fill="#010001" opacity="1.000000" stroke="none" 
	d="
M190.027679,268.932556 
	C166.426529,270.876373 143.118286,249.767120 141.486496,224.818176 
	C139.734299,198.028656 157.911438,172.780609 186.617386,170.356262 
	C185.749878,173.220215 184.369064,175.660553 183.256454,178.217606 
	C181.434814,182.404175 179.787598,186.666626 177.711365,190.990021 
	C175.566025,191.949738 173.680847,192.663040 172.000671,193.706451 
	C148.814331,208.105377 149.712708,244.040771 173.703552,257.238861 
	C178.150116,259.685059 183.182388,261.066620 188.020935,263.288391 
	C188.740921,265.402374 189.384308,267.167450 190.027679,268.932556 
z"/>
<path fill="#382C2D" opacity="1.000000" stroke="none" 
	d="
M259.105255,342.071747 
	C250.222260,338.624115 241.166870,335.551178 232.526810,331.575562 
	C228.005432,329.495148 224.213470,325.829498 220.415771,322.467102 
	C227.991074,323.544739 228.512405,315.887146 232.598984,312.963318 
	C236.514832,316.801392 237.672821,324.453033 245.923294,321.453430 
	C245.156616,320.025177 244.403000,318.621277 244.045288,317.214050 
	C248.496964,318.125366 252.552765,319.040009 256.947815,319.993103 
	C263.300842,323.386749 269.393158,323.531982 275.192535,319.799744 
	C281.380371,315.817474 282.032410,309.665131 280.914520,303.042358 
	C283.211853,303.005615 285.509186,302.968842 288.308014,303.400787 
	C288.809509,309.807404 288.809509,315.745270 288.809509,321.743378 
	C291.276215,321.743378 293.036102,321.743378 294.969727,321.743378 
	C295.178009,319.236542 295.366180,316.971832 295.555359,314.695160 
	C302.531799,312.339111 303.580078,318.258606 306.222778,321.843323 
	C290.473419,332.609192 273.250671,336.053589 254.471024,331.761810 
	C254.313034,332.169708 254.155045,332.577606 253.997055,332.985504 
	C257.960114,335.841736 261.923157,338.697998 265.784821,342.178406 
	C263.490723,342.558960 261.297974,342.315369 259.105255,342.071747 
z"/>
<path fill="#382C2D" opacity="1.000000" stroke="none" 
	d="
M219.049606,295.005981 
	C217.214386,293.940979 215.132980,293.149902 213.588257,291.761658 
	C208.078995,286.810394 202.752090,281.656158 196.613556,275.880005 
	C206.572372,272.975616 215.516373,271.057831 224.503281,275.382324 
	C236.007080,280.917938 247.397324,286.689667 258.823273,292.386200 
	C259.237640,292.592804 259.511505,293.081146 259.767548,294.064575 
	C250.590424,299.802551 248.757843,306.137817 252.868362,316.903839 
	C248.455978,315.643127 244.445679,314.342407 240.180267,312.841339 
	C236.602615,309.301056 236.371613,306.113525 239.811691,302.511200 
	C242.031464,300.186737 243.645996,297.284271 245.553513,294.610382 
	C237.268967,291.460846 236.558960,299.423492 232.467270,302.585938 
	C231.135071,300.746582 229.741776,299.094818 228.651672,297.262665 
	C226.187500,293.121002 222.881760,293.065063 219.049606,295.005981 
z"/>
<path fill="#DFD342" opacity="1.000000" stroke="none" 
	d="
M253.781189,236.124954 
	C251.652695,234.408585 249.524185,232.692215 247.395691,230.975861 
	C246.893784,230.439758 246.391861,229.903656 245.889938,229.367569 
	C245.184067,230.832123 244.478180,232.296677 243.123444,233.839691 
	C241.598083,232.862991 240.721558,231.807800 239.970886,230.453827 
	C241.018494,228.900177 241.940292,227.645340 242.895294,226.345276 
	C238.868851,222.497131 235.087402,218.883133 231.627335,215.065872 
	C235.519196,210.801468 239.063187,206.716522 242.676392,202.693771 
	C243.754181,201.493835 245.025772,200.467987 246.208557,199.362366 
	C248.188400,201.253891 250.089798,203.237625 252.171539,205.009476 
	C254.027191,206.588898 256.050354,208.862885 258.853455,205.259125 
	C260.648651,205.947266 261.782196,206.621246 262.685272,207.599472 
	C261.507355,209.068558 260.559937,210.233398 259.650330,211.351730 
	C261.964478,213.807678 263.941345,215.905685 265.605286,217.979584 
	C262.421844,220.337784 264.007233,222.195633 266.002197,224.002518 
	C266.000000,224.000000 265.995026,223.995209 265.971130,224.306610 
	C266.868408,229.231384 264.863098,232.190567 260.644012,233.800110 
	C258.388947,234.660385 256.070862,235.355392 253.781189,236.124954 
z"/>
<path fill="#E7BA6B" opacity="1.000000" stroke="none" 
	d="
M166.788895,308.797394 
	C165.983582,307.879486 165.420761,307.277283 164.174225,305.943542 
	C164.174225,311.561127 164.174225,316.412354 164.174225,321.633881 
	C161.691116,321.633881 159.796295,321.633881 157.537140,321.633881 
	C157.537140,312.727570 157.537140,303.670654 157.537140,294.456665 
	C160.927612,293.159058 163.286377,294.276703 165.441788,297.212646 
	C168.487000,301.360626 171.933426,305.214050 176.181671,310.376099 
	C176.181671,304.226562 176.181671,299.295746 176.181671,294.185608 
	C178.812485,294.185608 180.611038,294.185608 182.710968,294.185608 
	C182.710968,303.222473 182.710968,312.310333 182.710968,321.638245 
	C179.406372,322.738770 177.001755,321.804565 174.899506,318.795532 
	C172.523987,315.395355 169.674667,312.326202 166.788895,308.797394 
z"/>
<path fill="#906E2A" opacity="1.000000" stroke="none" 
	d="
M281.081635,259.330750 
	C280.238312,258.674133 279.395020,258.017487 278.259033,256.788391 
	C277.686798,253.460510 276.228271,252.650177 273.688812,253.623276 
	C273.688812,253.623276 273.501801,253.592361 273.537079,253.201965 
	C272.995880,252.127151 272.419434,251.442719 271.842957,250.758286 
	C266.974854,247.069138 262.106720,243.380005 257.486816,239.395142 
	C260.673126,239.898254 263.572815,240.975281 266.564148,241.388153 
	C268.270660,241.623672 270.538239,241.315323 271.842133,240.320175 
	C276.761230,236.565826 274.458130,230.943741 275.302979,226.175507 
	C281.036133,230.966446 286.461639,235.631989 291.983795,240.485229 
	C292.254486,240.912521 292.486511,241.062103 292.809448,241.122604 
	C292.842377,241.123535 292.879669,241.177795 292.820953,241.515289 
	C293.937500,247.644012 290.336731,249.949722 285.933685,252.423721 
	C283.721191,253.666885 282.662262,256.963013 281.081635,259.330750 
z"/>
<path fill="#E7BA6B" opacity="1.000000" stroke="none" 
	d="
M253.270432,316.863800 
	C248.757843,306.137817 250.590424,299.802551 259.865173,294.405121 
	C268.546722,292.816071 276.215485,293.526215 280.681854,302.796021 
	C282.032410,309.665131 281.380371,315.817474 275.192535,319.799744 
	C269.393158,323.531982 263.300842,323.386749 256.772156,319.711212 
	C255.261673,318.548523 254.266052,317.706146 253.270432,316.863800 
M272.845917,302.275360 
	C271.571136,301.505188 270.296356,300.734985 268.462463,299.458588 
	C262.935791,298.843445 259.378601,300.533356 258.025574,304.716187 
	C256.679016,308.878876 257.388947,312.710571 261.142639,315.325775 
	C264.656647,317.774017 268.341492,317.590546 271.702301,314.855896 
	C275.234894,311.981476 275.668365,307.843597 272.845917,302.275360 
z"/>
<path fill="#E7BA6B" opacity="1.000000" stroke="none" 
	d="
M306.628235,321.892242 
	C303.580078,318.258606 302.531799,312.339111 295.555359,314.695160 
	C295.366180,316.971832 295.178009,319.236542 294.969727,321.743378 
	C293.036102,321.743378 291.276215,321.743378 288.809509,321.743378 
	C288.809509,315.745270 288.809509,309.807404 288.734192,303.402466 
	C288.658844,300.136719 288.658844,297.337982 288.658844,293.878387 
	C296.763489,294.930481 305.116333,291.242981 311.829620,299.174377 
	C314.492676,305.493805 312.393311,309.871674 307.636444,313.453491 
	C309.179138,315.526550 310.526642,317.337341 311.874146,319.148102 
	C312.210480,319.847351 312.546814,320.546600 313.217590,321.941162 
	C310.932037,321.941162 308.982849,321.941162 306.628235,321.892242 
M306.026062,302.201996 
	C303.369720,297.905029 299.412750,299.162994 295.619324,299.427948 
	C295.619324,302.767517 295.619324,305.757080 295.619324,308.692963 
	C304.595184,309.450317 305.858643,308.723419 306.026062,302.201996 
z"/>
<path fill="#E7BA6B" opacity="1.000000" stroke="none" 
	d="
M333.016907,293.880127 
	C334.330658,294.592926 336.331390,294.979736 336.848907,296.070404 
	C340.810242,304.418457 344.482880,312.903534 348.355255,321.592896 
	C344.353973,322.399597 341.120239,322.839722 339.907928,318.027863 
	C339.692169,317.171448 338.082214,316.206818 337.038239,316.107178 
	C334.242493,315.840363 331.390442,315.854553 328.590607,316.098999 
	C327.535675,316.191071 325.886353,317.040314 325.664764,317.857910 
	C324.430176,322.413177 321.412720,322.652008 317.366028,321.561462 
	C319.107635,317.596985 320.828186,313.680420 322.857788,309.136841 
	C324.802917,304.794708 326.165833,300.920410 328.197815,297.436310 
	C329.121429,295.852722 331.369568,295.041595 333.016907,293.880127 
M330.384338,306.151459 
	C329.843842,307.618958 329.303314,309.086456 328.645050,310.873718 
	C331.670685,310.873718 334.101440,310.873718 337.073425,310.873718 
	C335.646637,307.527435 334.342590,304.469025 332.742950,300.717346 
	C331.851410,302.850800 331.301239,304.167358 330.384338,306.151459 
z"/>
<path fill="#E7BA6B" opacity="1.000000" stroke="none" 
	d="
M208.042877,293.810516 
	C210.013718,294.517944 213.719788,292.454895 213.064606,297.860199 
	C208.294785,298.942535 203.704544,299.232910 198.883514,299.537903 
	C198.883514,301.387299 198.883514,302.978394 198.883514,304.524628 
	C211.388046,306.880463 211.388046,306.880463 210.865311,310.274902 
	C207.041351,310.274902 203.130173,310.274902 199.269852,310.274902 
	C199.269852,312.753326 199.269852,314.723358 199.269852,316.845398 
	C202.947632,316.845398 206.615585,316.660461 210.246964,316.943939 
	C211.549316,317.045563 212.763474,318.277069 214.017868,318.992920 
	C213.877487,320.255951 213.737106,321.518982 213.644531,322.351868 
	C206.381897,322.351868 199.514328,322.351868 191.965332,322.351868 
	C191.965332,314.151978 191.965332,306.558563 191.976044,298.072327 
	C192.941879,296.118256 193.821411,294.235046 194.865311,294.139038 
	C199.230988,293.737549 203.645966,293.872284 208.042877,293.810516 
z"/>
<path fill="#382C2D" opacity="1.000000" stroke="none" 
	d="
M214.316711,319.114197 
	C212.763474,318.277069 211.549316,317.045563 210.246964,316.943939 
	C206.615585,316.660461 202.947632,316.845398 199.269852,316.845398 
	C199.269852,314.723358 199.269852,312.753326 199.269852,310.274902 
	C203.130173,310.274902 207.041351,310.274902 210.865311,310.274902 
	C211.388046,306.880463 211.388046,306.880463 198.883514,304.524628 
	C198.883514,302.978394 198.883514,301.387299 198.883514,299.537903 
	C203.704544,299.232910 208.294785,298.942535 213.152740,298.275452 
	C217.798859,300.641205 222.177231,303.383606 227.226151,306.331726 
	C224.804001,311.383423 221.711288,316.229431 218.618591,321.075439 
	C217.284271,320.462097 215.949921,319.848785 214.316711,319.114197 
z"/>
<path fill="#E7BA6B" opacity="1.000000" stroke="none" 
	d="
M218.732910,321.361511 
	C221.711288,316.229431 224.804001,311.383423 227.613556,306.329681 
	C224.756317,302.538483 222.182236,298.955078 219.328888,295.188812 
	C222.881760,293.065063 226.187500,293.121002 228.651672,297.262665 
	C229.741776,299.094818 231.135071,300.746582 232.467270,302.585938 
	C236.558960,299.423492 237.268967,291.460846 245.553513,294.610382 
	C243.645996,297.284271 242.031464,300.186737 239.811691,302.511200 
	C236.371613,306.113525 236.602615,309.301056 240.342117,313.136993 
	C241.722488,314.827759 242.685944,316.022583 243.649399,317.217377 
	C244.403000,318.621277 245.156616,320.025177 245.923294,321.453430 
	C237.672821,324.453033 236.514832,316.801392 232.598984,312.963318 
	C228.512405,315.887146 227.991074,323.544739 220.326706,322.147766 
	C219.558365,322.043243 219.202805,321.845428 218.732910,321.361511 
z"/>
<path fill="#C0AC37" opacity="1.000000" stroke="none" 
	d="
M246.052429,199.092560 
	C245.025772,200.467987 243.754181,201.493835 242.676392,202.693771 
	C239.063187,206.716522 235.519196,210.801468 231.335892,214.944870 
	C226.845642,211.637390 222.968201,208.247665 219.185226,204.535248 
	C222.862885,197.962936 226.471298,191.737579 233.814285,189.105240 
	C237.841614,192.344406 241.868958,195.583572 246.052429,199.092560 
z"/>
<path fill="#61481A" opacity="1.000000" stroke="none" 
	d="
M281.268097,259.585632 
	C282.662262,256.963013 283.721191,253.666885 285.933685,252.423721 
	C290.336731,249.949722 293.937500,247.644012 293.165833,241.569824 
	C298.707794,243.860855 303.846161,246.434860 308.906067,249.348450 
	C308.458954,250.413284 308.173431,251.197357 307.708435,251.854446 
	C304.148865,256.884430 300.554443,261.889679 296.970825,266.902618 
	C291.798737,264.548584 286.626648,262.194580 281.268097,259.585632 
z"/>
<path fill="#382C2D" opacity="1.000000" stroke="none" 
	d="
M207.852646,293.544495 
	C203.645966,293.872284 199.230988,293.737549 194.865311,294.139038 
	C193.821411,294.235046 192.941879,296.118256 191.904526,297.611176 
	C190.979599,296.824066 190.015533,295.671082 189.313126,294.376190 
	C182.737778,282.254639 176.000565,278.981171 162.376129,281.346924 
	C161.652512,281.472595 160.913239,281.508240 159.794540,281.626770 
	C167.493515,272.774384 178.401169,271.685059 189.717041,279.092102 
	C196.071503,283.251556 201.704422,288.513306 207.852646,293.544495 
z"/>
<path fill="#906E2A" opacity="1.000000" stroke="none" 
	d="
M233.789749,188.766083 
	C226.471298,191.737579 222.862885,197.962936 218.860321,204.448242 
	C214.330856,201.375198 210.220749,198.066452 206.185272,194.429977 
	C208.174484,191.251007 209.957596,188.299255 212.039719,185.576141 
	C214.221695,182.722458 216.690659,180.088196 219.034180,177.358017 
	C223.944519,181.047653 228.854874,184.737289 233.789749,188.766083 
z"/>
<path fill="#2E220D" opacity="1.000000" stroke="none" 
	d="
M178.066818,190.897079 
	C179.787598,186.666626 181.434814,182.404175 183.256454,178.217606 
	C184.369064,175.660553 185.749878,173.220215 187.049149,170.359909 
	C193.200623,170.379303 199.313171,170.766235 205.668335,171.729034 
	C204.874954,173.763153 203.802536,175.197037 202.809921,176.684204 
	C199.895538,181.050583 197.012848,185.438126 193.706497,189.860931 
	C188.219086,190.235336 183.142960,190.566208 178.066818,190.897079 
z"/>
<path fill="#2E220D" opacity="1.000000" stroke="none" 
	d="
M297.272064,267.146393 
	C300.554443,261.889679 304.148865,256.884430 307.708435,251.854446 
	C308.173431,251.197357 308.458954,250.413284 309.361115,249.324951 
	C314.273682,248.642670 318.652740,248.323502 323.031830,248.004333 
	C320.866852,252.587479 318.739899,257.189148 316.520447,261.745789 
	C315.448151,263.947296 314.201996,266.064148 312.995850,268.574982 
	C307.829193,268.417145 302.701263,267.903656 297.272064,267.146393 
z"/>
<path fill="#61481A" opacity="1.000000" stroke="none" 
	d="
M194.117767,189.817383 
	C197.012848,185.438126 199.895538,181.050583 202.809921,176.684204 
	C203.802536,175.197037 204.874954,173.763153 205.970154,171.922913 
	C210.215851,173.335815 214.402328,175.130753 218.811493,177.141846 
	C216.690659,180.088196 214.221695,182.722458 212.039719,185.576141 
	C209.957596,188.299255 208.174484,191.251007 205.850830,194.340973 
	C201.667068,192.992264 197.892426,191.404816 194.117767,189.817383 
z"/>
<path fill="#382C2D" opacity="1.000000" stroke="none" 
	d="
M333.051300,293.523071 
	C331.369568,295.041595 329.121429,295.852722 328.197815,297.436310 
	C326.165833,300.920410 324.802917,304.794708 322.980835,308.769592 
	C319.208710,312.171051 315.622711,315.312683 311.955414,318.801208 
	C310.526642,317.337341 309.179138,315.526550 307.636444,313.453491 
	C312.393311,309.871674 314.492676,305.493805 312.093018,299.395081 
	C319.126770,295.728851 326.232880,292.457703 333.667938,289.093109 
	C333.996887,288.999664 333.972412,288.980347 333.972412,288.980347 
	C333.676819,290.375580 333.381256,291.770813 333.051300,293.523071 
z"/>
<path fill="#C0AC37" opacity="1.000000" stroke="none" 
	d="
M274.995331,226.050140 
	C274.458130,230.943741 276.761230,236.565826 271.842133,240.320175 
	C270.538239,241.315323 268.270660,241.623672 266.564148,241.388153 
	C263.572815,240.975281 260.673126,239.898254 257.319092,239.107117 
	C255.953522,238.305908 255.003952,237.497040 253.917786,236.406555 
	C256.070862,235.355392 258.388947,234.660385 260.644012,233.800110 
	C264.863098,232.190567 266.868408,229.231384 266.199036,224.258545 
	C266.681885,223.561447 266.912903,223.223816 267.143921,222.886185 
	C267.000702,222.851105 266.758148,222.749146 266.729736,222.791367 
	C266.466888,223.181747 266.240997,223.597000 266.004364,224.005035 
	C264.007233,222.195633 262.421844,220.337784 265.925720,218.093231 
	C269.371185,220.837402 272.183258,223.443771 274.995331,226.050140 
z"/>
<path fill="#2E220D" opacity="1.000000" stroke="none" 
	d="
M318.403625,169.849060 
	C319.436005,172.044617 320.111420,174.100189 320.436584,176.436768 
	C313.195618,176.575623 306.304932,176.433456 299.283203,175.950439 
	C298.715210,174.484619 298.278259,173.359680 297.841278,172.234741 
	C304.576416,171.392838 311.311523,170.550949 318.403625,169.849060 
z"/>
<path fill="#C0AC37" opacity="1.000000" stroke="none" 
	d="
M239.845047,230.752625 
	C240.721558,231.807800 241.598083,232.862991 242.828247,234.007690 
	C238.707611,239.157272 234.233307,244.217316 229.364655,249.133423 
	C228.303955,247.632904 227.637604,246.276337 227.119843,244.623672 
	C231.460617,239.802597 235.652832,235.277603 239.845047,230.752625 
z"/>
<path fill="#906E2A" opacity="1.000000" stroke="none" 
	d="
M231.244019,341.874725 
	C236.067917,343.719177 233.202209,348.001617 234.682037,350.795074 
	C231.844345,351.826294 229.006638,352.857513 225.388687,354.172272 
	C225.388687,349.254120 225.388687,345.757050 225.388687,341.815582 
	C227.297134,341.815582 229.069687,341.815582 231.244019,341.874725 
z"/>
<path fill="#906E2A" opacity="1.000000" stroke="none" 
	d="
M269.190002,193.090881 
	C274.241669,188.476990 279.293304,183.863083 284.810608,179.396942 
	C285.813568,180.611008 286.350861,181.677338 286.640930,182.979156 
	C281.913086,187.445526 277.432465,191.676392 272.868011,195.603745 
	C271.586090,194.563782 270.388062,193.827332 269.190002,193.090881 
z"/>
<path fill="#2E220D" opacity="1.000000" stroke="none" 
	d="
M190.454544,268.935120 
	C189.384308,267.167450 188.740921,265.402374 188.482117,263.308197 
	C194.269150,262.363373 199.671616,261.747620 205.073334,261.503906 
	C205.395599,263.089539 205.718597,264.303131 206.041595,265.516724 
	C200.988205,266.657043 195.934799,267.797363 190.454544,268.935120 
z"/>
<path fill="#C0AC37" opacity="1.000000" stroke="none" 
	d="
M268.944824,193.319550 
	C270.388062,193.827332 271.586090,194.563782 272.584290,195.795044 
	C269.228210,199.958298 266.071991,203.626770 262.915771,207.295227 
	C261.782196,206.621246 260.648651,205.947266 259.169678,205.078949 
	C262.116089,201.105804 265.407898,197.327011 268.944824,193.319550 
z"/>
<path fill="#61481A" opacity="1.000000" stroke="none" 
	d="
M206.408295,265.378174 
	C205.718597,264.303131 205.395599,263.089539 205.406006,261.382080 
	C210.152588,258.256989 214.565735,255.625763 219.185303,253.243103 
	C220.280487,254.421097 221.169266,255.350540 222.058044,256.279999 
	C216.963699,259.266541 211.869354,262.253082 206.408295,265.378174 
z"/>
<path fill="#906E2A" opacity="1.000000" stroke="none" 
	d="
M299.476257,343.751221 
	C300.852264,345.304260 302.003632,346.604370 303.650055,348.463562 
	C304.093445,345.753937 304.391785,343.930847 304.690094,342.107758 
	C304.990479,342.123505 305.290894,342.139221 305.591278,342.154968 
	C305.591278,345.636353 305.591278,349.117737 305.591278,353.662323 
	C303.001068,350.863068 300.973053,348.671387 298.474182,345.970825 
	C298.173981,348.684753 297.950531,350.705048 297.727081,352.725311 
	C297.424377,352.722961 297.121674,352.720612 296.818970,352.718262 
	C296.818970,349.216888 296.818970,345.715485 296.818970,341.636292 
	C297.833710,342.412994 298.542664,342.955627 299.476257,343.751221 
z"/>
<path fill="#61481A" opacity="1.000000" stroke="none" 
	d="
M286.888123,182.743668 
	C286.350861,181.677338 285.813568,180.611008 285.131500,179.277954 
	C289.052826,176.805405 293.118958,174.599579 297.513184,172.314240 
	C298.278259,173.359680 298.715210,174.484619 298.958710,176.115173 
	C294.806213,178.661758 290.847168,180.702713 286.888123,182.743668 
z"/>
<path fill="#906E2A" opacity="1.000000" stroke="none" 
	d="
M247.709778,341.699341 
	C249.025375,341.849487 249.953659,341.997589 250.881958,342.145721 
	C250.888672,342.351227 250.895386,342.556732 250.902100,342.762268 
	C248.995041,343.173767 247.087967,343.585266 245.180908,343.996765 
	C245.144135,344.448547 245.107361,344.900330 245.070572,345.352112 
	C246.722290,345.917603 248.373993,346.483124 250.003952,347.041168 
	C248.425308,348.031616 246.837921,349.027557 245.250534,350.023468 
	C247.129639,350.716949 249.008743,351.410431 252.018082,352.521027 
	C248.665573,352.521027 246.305893,352.521027 243.891495,352.521027 
	C241.920837,344.735565 242.697189,342.217224 247.709778,341.699341 
z"/>
<path fill="#906E2A" opacity="1.000000" stroke="none" 
	d="
M280.399475,352.976807 
	C278.689453,350.683716 276.688324,348.563904 276.342590,346.201752 
	C276.162781,344.973358 278.726318,342.418854 280.375458,342.089417 
	C282.290924,341.706787 285.155487,342.529205 286.497559,343.908936 
	C287.635895,345.079193 288.127930,348.551178 287.237549,349.638885 
	C285.818604,351.372223 283.013763,351.971008 280.399475,352.976807 
M283.081787,343.450073 
	C281.386993,344.571838 279.345062,345.431763 278.191162,346.961517 
	C277.802734,347.476501 279.380310,350.468506 280.586243,350.919556 
	C281.856995,351.394836 285.115479,350.244934 285.139099,349.702209 
	C285.224060,347.747925 284.310852,345.750275 283.081787,343.450073 
z"/>
<path fill="#906E2A" opacity="1.000000" stroke="none" 
	d="
M198.399506,352.976807 
	C196.689453,350.683716 194.688354,348.563873 194.342606,346.201721 
	C194.162811,344.973358 196.726318,342.418854 198.375458,342.089417 
	C200.290939,341.706787 203.155487,342.529236 204.497574,343.908936 
	C205.635925,345.079163 206.127975,348.551208 205.237579,349.638855 
	C203.818619,351.372162 201.013794,351.970978 198.399506,352.976807 
M200.330658,343.287781 
	C198.876465,344.719208 197.033463,345.959961 196.185654,347.688751 
	C195.901123,348.268890 198.010040,350.902008 199.281921,351.123901 
	C200.606522,351.354980 203.575836,349.623657 203.499680,349.070831 
	C203.231262,347.122467 201.964661,345.311646 200.330658,343.287781 
z"/>
<path fill="#906E2A" opacity="1.000000" stroke="none" 
	d="
M178.346466,342.401123 
	C180.203796,342.034088 181.761597,341.857666 182.914337,341.727112 
	C181.038803,343.753571 179.058487,345.610138 177.572403,347.801819 
	C177.347702,348.133209 179.550461,351.076538 180.409729,350.973389 
	C182.133286,350.766479 183.704391,349.289520 186.362106,347.739929 
	C185.519760,349.662872 184.837097,352.425568 184.224335,352.410126 
	C181.669540,352.345856 178.369049,352.232452 176.769180,350.672974 
	C174.196121,348.164856 175.095840,344.911469 178.346466,342.401123 
z"/>
<path fill="#906E2A" opacity="1.000000" stroke="none" 
	d="
M222.350922,256.107269 
	C221.169266,255.350540 220.280487,254.421097 219.371811,252.967194 
	C221.891708,249.935074 224.431488,247.427429 226.971268,244.919769 
	C227.637604,246.276337 228.303955,247.632904 229.085205,249.355347 
	C227.014679,251.792328 224.829239,253.863419 222.350922,256.107269 
z"/>
<path fill="#906E2A" opacity="1.000000" stroke="none" 
	d="
M259.155090,342.418915 
	C261.297974,342.315369 263.490723,342.558960 265.833466,342.528534 
	C266.749573,342.134247 267.515686,342.013977 268.685730,341.830322 
	C266.999664,345.715118 265.500214,349.169983 264.055511,352.498657 
	C262.464966,349.307251 260.834930,346.036682 259.155090,342.418915 
z"/>
<path fill="#61481A" opacity="1.000000" stroke="none" 
	d="
M273.881409,253.845367 
	C276.228271,252.650177 277.686798,253.460510 278.002808,256.595215 
	C276.717468,256.005463 275.395721,255.036453 273.881409,253.845367 
z"/>
<path fill="#61481A" opacity="1.000000" stroke="none" 
	d="
M271.658264,251.018570 
	C272.419434,251.442719 272.995880,252.127151 273.514282,253.109970 
	C272.795319,252.698532 272.134460,251.988693 271.658264,251.018570 
z"/>
<path fill="#382C2D" opacity="1.000000" stroke="none" 
	d="
M334.006226,289.011902 
	C334.015594,289.024109 334.150146,288.791046 334.150146,288.791046 
	C334.150146,288.791046 334.114105,288.940277 334.043274,288.960327 
	C333.972412,288.980347 333.996887,288.999664 334.006226,289.011902 
z"/>
<path fill="#00032E" opacity="1.000000" stroke="none" 
	d="
M286.640930,182.979156 
	C290.847168,180.702713 294.806213,178.661758 299.089752,176.456055 
	C306.304932,176.433456 313.195618,176.575623 320.457214,176.793793 
	C335.263458,182.139038 344.276642,192.078842 347.141724,207.348068 
	C350.188110,223.583466 341.550415,239.856781 326.370453,246.429733 
	C325.455048,246.826096 324.559387,247.268051 323.343201,247.846558 
	C318.652740,248.323502 314.273682,248.642670 309.439545,248.985352 
	C303.846161,246.434860 298.707794,243.860855 293.224548,241.232315 
	C292.879669,241.177795 292.842377,241.123535 292.711029,240.936935 
	C292.403442,240.515869 292.172577,240.364944 291.887115,240.297531 
	C286.461639,235.631989 281.036133,230.966446 275.302979,226.175507 
	C272.183258,223.443771 269.371185,220.837402 266.238647,218.117371 
	C263.941345,215.905685 261.964478,213.807678 259.650330,211.351730 
	C260.559937,210.233398 261.507355,209.068558 262.685272,207.599487 
	C266.071991,203.626770 269.228210,199.958298 272.668152,196.098541 
	C277.432465,191.676392 281.913086,187.445526 286.640930,182.979156 
z"/>
<path fill="#00032E" opacity="1.000000" stroke="none" 
	d="
M227.119843,244.623672 
	C224.431488,247.427429 221.891708,249.935074 219.165405,252.718628 
	C214.565735,255.625763 210.152588,258.256989 205.406754,261.010040 
	C199.671616,261.747620 194.269150,262.363373 188.405518,262.959351 
	C183.182388,261.066620 178.150116,259.685059 173.703552,257.238861 
	C149.712708,244.040771 148.814331,208.105377 172.000671,193.706451 
	C173.680847,192.663040 175.566025,191.949738 177.711365,190.990021 
	C183.142960,190.566208 188.219086,190.235336 193.706497,189.860931 
	C197.892426,191.404816 201.667068,192.992264 205.776184,194.668701 
	C210.220749,198.066452 214.330856,201.375198 218.765869,204.770935 
	C222.968201,208.247665 226.845642,211.637390 231.014511,215.148132 
	C235.087402,218.883133 238.868851,222.497131 242.895294,226.345276 
	C241.940292,227.645340 241.018494,228.900177 239.970886,230.453827 
	C235.652832,235.277603 231.460617,239.802597 227.119843,244.623672 
z"/>
<path fill="#00032E" opacity="1.000000" stroke="none" 
	d="
M244.045288,317.214050 
	C242.685944,316.022583 241.722488,314.827759 240.597198,313.337311 
	C244.445679,314.342407 248.455978,315.643127 252.868362,316.903839 
	C254.266052,317.706146 255.261673,318.548523 256.432922,319.672729 
	C252.552765,319.040009 248.496964,318.125366 244.045288,317.214050 
z"/>
<path fill="#61481A" opacity="1.000000" stroke="none" 
	d="
M291.983795,240.485229 
	C292.172577,240.364944 292.403442,240.515869 292.678101,240.936005 
	C292.486511,241.062103 292.254486,240.912521 291.983795,240.485229 
z"/>
<path fill="#382C2D" opacity="1.000000" stroke="none" 
	d="
M273.106903,302.885834 
	C275.668365,307.843597 275.234894,311.981476 271.702301,314.855896 
	C268.341492,317.590546 264.656647,317.774017 261.142639,315.325775 
	C257.388947,312.710571 256.679016,308.878876 258.025574,304.716187 
	C259.378601,300.533356 262.935791,298.843445 268.492157,299.947266 
	C266.850677,301.127594 265.179535,301.819305 263.508362,302.510986 
	C263.607117,303.009735 263.705841,303.508484 263.804565,304.007233 
	C266.905365,303.633423 270.006134,303.259644 273.106903,302.885834 
z"/>
<path fill="#00032E" opacity="1.000000" stroke="none" 
	d="
M272.976410,302.580597 
	C270.006134,303.259644 266.905365,303.633423 263.804565,304.007233 
	C263.705841,303.508484 263.607117,303.009735 263.508362,302.510986 
	C265.179535,301.819305 266.850677,301.127594 268.771729,300.200348 
	C270.296356,300.734985 271.571136,301.505188 272.976410,302.580597 
z"/>
<path fill="#382C2D" opacity="1.000000" stroke="none" 
	d="
M306.119659,302.558044 
	C305.858643,308.723419 304.595184,309.450317 295.619324,308.692963 
	C295.619324,305.757080 295.619324,302.767517 295.619324,299.427948 
	C299.412750,299.162994 303.369720,297.905029 306.119659,302.558044 
z"/>
<path fill="#00032E" opacity="1.000000" stroke="none" 
	d="
M330.567688,305.817688 
	C331.301239,304.167358 331.851410,302.850800 332.742950,300.717346 
	C334.342590,304.469025 335.646637,307.527435 337.073425,310.873718 
	C334.101440,310.873718 331.670685,310.873718 328.645050,310.873718 
	C329.303314,309.086456 329.843842,307.618958 330.567688,305.817688 
z"/>
<path fill="#DFD342" opacity="1.000000" stroke="none" 
	d="
M266.002197,224.002518 
	C266.240997,223.597000 266.466888,223.181747 266.729736,222.791367 
	C266.758148,222.749146 267.000702,222.851105 267.143921,222.886185 
	C266.912903,223.223816 266.681885,223.561447 266.222961,223.947144 
	C265.995026,223.995209 266.000000,224.000000 266.002197,224.002518 
z"/>
<path fill="#00032E" opacity="1.000000" stroke="none" 
	d="
M283.428284,343.609528 
	C284.310852,345.750275 285.224060,347.747925 285.139099,349.702209 
	C285.115479,350.244934 281.856995,351.394836 280.586243,350.919556 
	C279.380310,350.468506 277.802734,347.476501 278.191162,346.961517 
	C279.345062,345.431763 281.386993,344.571838 283.428284,343.609528 
z"/>
<path fill="#00032E" opacity="1.000000" stroke="none" 
	d="
M200.703674,343.368225 
	C201.964661,345.311646 203.231262,347.122467 203.499680,349.070831 
	C203.575836,349.623657 200.606522,351.354980 199.281921,351.123901 
	C198.010040,350.902008 195.901123,348.268890 196.185654,347.688751 
	C197.033463,345.959961 198.876465,344.719208 200.703674,343.368225 
z"/>
</svg>
